<?xml version="1.0" encoding="UTF-8"?>
<svg width="1024px" height="1024px" viewBox="0 0 1024 1024" version="1.1" xmlns="http://www.w3.org/2000/svg" xmlns:xlink="http://www.w3.org/1999/xlink">
    <!-- Generator: Sketch 52.6 (67491) - http://www.bohemiancoding.com/sketch -->
    <title>aws</title>
    <desc>Created with Sketch.</desc>
    <g id="aws" stroke="none" stroke-width="1" fill="none" fill-rule="evenodd">
        <polygon id="Path" points="5.91907514 1021.08092 5.91907514 3 1024 3 1024 1021.08092"></polygon>
        <path d="M926.44505,500.342861 C815.050009,583.443716 653.196391,627.560537 514.016205,627.560537 C318.990078,627.560537 143.243858,554.725311 10.5115578,433.65856 C0.0125982656,424.092861 9.49347688,411.09108 22.0285983,418.620676 C165.599199,502.739613 342.68165,553.707289 525.872586,553.707289 C649.463349,553.707289 785.249892,527.725035 910.176945,474.360607 C928.820552,465.812989 944.728066,486.662398 926.44505,500.342861 Z M972.831362,446.999623 C958.599419,428.525716 878.701316,438.112605 842.474564,442.545519 C831.636263,443.90294 829.939442,434.337241 839.759661,427.147045 C903.410909,382.012144 1008.03997,394.992675 1020.2357,410.05175 C1032.43148,425.450224 1016.84211,531.118559 957.263129,581.725646 C948.121591,589.594582 939.319452,585.479819 943.370586,575.23538 C956.923788,541.384189 987.063245,465.11294 972.831303,446.999623 L972.831362,446.999623 Z" id="Shape" fill="#FF9900" fill-rule="nonzero"></path>
    </g>
</svg>