<?xml version="1.0" encoding="UTF-8"?>
<svg width="1024px" height="376px" viewBox="0 0 1024 376" version="1.1" xmlns="http://www.w3.org/2000/svg" xmlns:xlink="http://www.w3.org/1999/xlink">
    <!-- Generator: Sketch 52.6 (67491) - http://www.bohemiancoding.com/sketch -->
    <title>hsd</title>
    <desc>Created with Sketch.</desc>
    <g id="hsd" stroke="none" stroke-width="1" fill="none" fill-rule="evenodd">
        <path d="M54.0999477,367.948083 L0,367.948083 L0,8.05189887 L54.0999477,8.05189887 L54.0999477,161.038281 L244.911939,161.038281 L244.911939,8.05189887 L298.768209,8.05189887 L298.768209,367.948083 L244.911939,367.948083 L244.911939,214.961701 L54.0999477,214.961701 L54.0999477,367.948083 Z M496.403608,259.369243 C478.532667,259.369243 461.758624,255.953302 446.080909,249.121348 C430.403211,242.289393 416.715915,233.017568 405.018556,221.305638 C393.321198,209.593709 384.060957,195.889325 377.237495,180.192074 C370.414051,164.494841 367.002383,147.699842 367.002383,129.806612 C367.002383,111.913383 370.414051,95.077729 377.237495,79.2991511 C384.060957,63.5205732 393.321198,49.7755338 405.018556,38.0635868 C416.715915,26.3516398 430.403211,17.0798498 446.080909,10.2478778 C461.758624,3.41592357 478.532667,0 496.403608,0 C509.888045,0 522.803703,1.95194358 535.150887,5.85593781 C547.498053,9.75993204 558.829707,15.249799 569.146117,22.3257529 C579.462492,29.4017067 588.641524,37.8602062 596.683483,47.7014833 C604.725441,57.5427783 611.183235,68.319203 616.057113,80.03115 L566.343652,100.770923 C563.419322,93.9389689 559.64211,87.6357757 555.011891,81.8611295 C550.381691,76.0864654 545.020492,71.1252703 538.928135,66.9772764 C532.83576,62.8293004 526.174875,59.6167217 518.945265,57.3393799 C511.715638,55.0620559 504.201835,53.9234206 496.403608,53.9234206 C486.005973,53.9234206 476.217718,55.9160367 467.038543,59.9013582 C457.859386,63.8866797 449.858192,69.2952194 443.034748,76.1271915 C436.211286,82.9591457 430.809483,91.0109732 426.829126,100.282924 C422.848769,109.554874 420.858635,119.396009 420.858635,129.806612 C420.858635,140.217216 422.848769,150.017696 426.829126,159.208301 C430.809483,168.398925 436.211286,176.41008 443.034748,183.242052 C449.858192,190.074006 457.859386,195.482563 467.038543,199.467867 C476.217718,203.453189 486.005973,205.445805 496.403608,205.445805 L496.403608,259.369243 Z M496.403608,376 C482.91919,376 470.003531,374.048056 457.656348,370.144062 C445.309164,366.240068 433.936906,360.750201 423.53927,353.674229 C413.141634,346.598275 403.962601,338.139794 396.001904,328.298499 C388.041208,318.457222 381.624018,307.680797 376.750122,295.96885 L426.463582,275.229077 C429.387913,282.061031 433.205747,288.364224 437.917174,294.138871 C442.628618,299.913517 448.030421,304.87473 454.122796,309.022706 C460.21517,313.1707 466.835452,316.383278 473.983817,318.660602 C481.132183,320.937944 488.605382,322.076579 496.403608,322.076579 C506.801244,322.076579 516.630138,320.083945 525.890522,316.098642 C535.150905,312.11332 543.192721,306.704763 550.016183,299.872809 C556.839627,293.040854 562.241447,285.029682 566.221804,275.839058 C570.202144,266.648453 572.192278,256.847973 572.192278,246.437369 C572.192278,236.026766 570.202144,226.185649 566.221804,216.913698 C562.241447,207.64173 556.839627,199.589903 550.016183,192.757948 C543.192721,185.925976 535.150905,180.517437 525.890522,176.532115 C516.630138,172.546811 506.801244,170.554177 496.403608,170.554177 L496.403608,116.630757 C514.274568,116.630757 531.089233,120.04668 546.848174,126.878652 C562.607098,133.710607 576.335016,142.982432 588.032356,154.694344 C599.729715,166.406273 608.990009,180.15133 615.813417,195.929908 C622.636844,211.708486 626.048548,228.54414 626.048548,246.437369 C626.048548,264.330617 622.636844,281.125598 615.813417,296.822849 C608.990009,312.520099 599.729715,326.224466 588.032356,337.936413 C576.335016,349.648342 562.607098,358.92015 546.848174,365.752104 C531.089233,372.584076 514.274568,376 496.403608,376 Z M836.356017,376 C820.434624,376 805.082062,374.129384 790.297957,370.388062 C775.513834,366.64674 761.542184,361.19751 748.382669,354.040229 L748.382669,367.948083 L694.282722,367.948083 L694.282722,8.05189887 L748.382669,8.05189887 L748.382669,21.9597534 C761.542184,14.9651268 775.513834,9.55656926 790.297957,5.73393799 C805.082062,1.91128887 820.434624,0 836.356017,0 C853.577133,0 870.188689,2.23661577 886.191326,6.7099187 C902.193981,11.1832395 917.140342,17.4864148 931.030926,25.6197301 C944.921528,33.752992 957.593455,43.5534538 969.047117,55.0214011 C980.50078,66.4893485 990.289034,79.1770799 998.412183,93.0850058 C1006.53531,106.992932 1012.83069,121.998606 1017.29842,138.102529 C1021.76617,154.206434 1024,170.879433 1024,188.121991 C1024,205.364567 1021.76617,221.996893 1017.29842,238.019471 C1012.83069,254.042049 1006.53531,269.007068 998.412183,282.914994 C990.289034,296.822902 980.50078,309.510634 969.047117,320.978581 C957.593455,332.446528 944.921528,342.246972 931.030926,350.38027 C917.140342,358.513567 902.193981,364.816761 886.191326,369.290063 C870.188689,373.763384 853.577133,376 836.356017,376 Z M769.340304,304.264766 C779.250566,309.95805 789.85108,314.349972 801.142309,317.440622 C812.433537,320.531272 824.171268,322.076579 836.356017,322.076579 C854.876784,322.076579 872.260084,318.579329 888.506417,311.584684 C904.752768,304.59004 918.927438,295.033578 931.030926,282.914994 C943.134414,270.796393 952.67899,256.604009 959.664922,240.33745 C966.650836,224.070873 970.14373,206.665892 970.14373,188.121991 C970.14373,169.57809 966.650836,152.173127 959.664922,135.90655 C952.67899,119.639973 943.134414,105.406934 931.030926,93.2070056 C918.927438,81.0070594 904.752768,71.4099425 888.506417,64.4153159 C872.260084,57.4206714 854.876784,53.9234206 836.356017,53.9234206 C824.171268,53.9234206 812.433537,55.4687279 801.142309,58.5593781 C789.85108,61.6500104 779.33181,66.0419325 769.584,71.7352337 L748.382669,35.6236083 L748.382669,340.620374 L769.340304,304.264766 Z" id="HSD" fill="#E60028"></path>
    </g>
</svg>