<?xml version="1.0" encoding="UTF-8"?>
<svg width="1024px" height="1024px" viewBox="0 0 1024 1024" version="1.1" xmlns="http://www.w3.org/2000/svg" xmlns:xlink="http://www.w3.org/1999/xlink">
    <!-- Generator: Sketch 52.6 (67491) - http://www.bohemiancoding.com/sketch -->
    <title>javascript</title>
    <desc>Created with Sketch.</desc>
    <g id="javascript" stroke="none" stroke-width="1" fill="none" fill-rule="evenodd">
        <path d="M-3.97903932e-13,0 L1024,0 L1024,1024.00445 L-3.97903932e-13,1024.00445 L-3.97903932e-13,0 Z M557.258967,798.633449 L557.258967,470.173688 L461.03107,470.173688 L461.03107,797.264394 C461.03107,845.490761 440.911521,857.832294 409.369821,857.832294 C376.22755,857.832294 362.512509,835.20615 347.426186,808.463934 L269.027174,855.779824 C291.88706,904.006191 336.458161,943.775581 413.483665,943.775581 C498.743537,943.775581 557.258967,898.28955 557.258967,798.633449 Z M784.916182,943.775581 C876.113079,943.775581 944.229706,896.232628 944.225254,809.837442 C944.225254,729.381508 898.282872,693.492222 816.45343,658.520091 L792.456004,648.233254 C751.083818,630.181758 733.254933,618.521413 733.254933,589.72005 C733.254933,566.410491 751.083818,548.579379 779.199541,548.579379 C806.856686,548.579379 824.685571,560.233046 841.140949,589.72005 L916.113984,541.720745 C884.570057,485.947878 840.684597,464.690789 779.426604,464.690789 C693.714832,464.690789 638.629832,519.548727 638.629832,591.779198 C638.629832,670.175984 684.57444,707.434326 754.060122,736.92133 L778.059774,747.205941 C822.172297,766.637623 848.226645,778.289063 848.226645,811.206497 C848.226645,838.861416 822.630875,858.744998 782.85926,858.744998 C735.54337,858.744998 708.574092,833.832642 688.002644,800.229567 L609.601405,845.490761 C637.717128,901.259176 695.544692,943.775581 784.916182,943.775581 Z" id="Combined-Shape" fill="#F0DB4F"></path>
    </g>
</svg>