<?xml version="1.0" encoding="UTF-8"?>
<svg width="1024px" height="1024px" viewBox="0 0 1024 1024" version="1.1" xmlns="http://www.w3.org/2000/svg" xmlns:xlink="http://www.w3.org/1999/xlink">
    <!-- Generator: Sketch 52.6 (67491) - http://www.bohemiancoding.com/sketch -->
    <title>node</title>
    <desc>Created with Sketch.</desc>
    <g id="node" stroke="none" stroke-width="1" fill="none" fill-rule="evenodd">
        <g id="Group" transform="translate(47.000000, 0.000000)">
            <path d="M433.982138,12.1134545 L24.768,238.528 C9.42359273,246.950865 2.55795385e-13,262.628771 2.55795385e-13,279.557818 L2.55795385e-13,732.637091 C2.55795385e-13,749.566138 9.42359273,765.160727 24.768,773.666909 L434.065455,1000.24832 C449.326545,1008.67119 468.257047,1008.67119 483.518138,1000.24832 L892.732276,773.666909 C907.910051,765.160727 917.333411,749.566138 917.333411,732.637091 L917.333411,279.557818 C917.333411,262.628771 907.909818,247.034182 892.565411,238.528 L483.434822,12.1134545 C475.762502,7.86036364 467.173004,5.77559273 458.666822,5.77559273 C450.077324,5.77559273 441.571142,7.86036364 433.898822,12.1134545" id="Shape" fill="#388E3C" fill-rule="nonzero"></path>
            <path d="M433.982138,12.1134545 L2.55795385e-13,732.637091 C2.55795385e-13,749.566138 9.42359273,765.160727 24.768,773.666909 L434.065455,1000.24832 C449.326545,1008.67119 468.257047,1008.67119 483.518138,1000.24832 L917.333411,279.557818 C917.333411,262.628771 907.909818,247.034182 892.565411,238.528 L483.434822,12.1134545 C475.762502,7.86036364 467.173004,5.77559273 458.666822,5.77559273 C450.077324,5.77559273 441.571142,7.86036364 433.898822,12.1134545" id="Path" fill="#2E7D32"></path>
            <path d="M433.982138,12.1134545 L24.768,238.528 C9.42359273,246.950865 1.27897692e-13,262.628771 1.27897692e-13,279.557818 L433.982138,1000.24832 C449.243229,1008.67119 468.173731,1008.67119 483.434822,1000.24832 L892.64896,773.666909 C907.910051,765.160727 917.333644,749.566138 917.333644,732.637091 L483.435055,12.1134545 C475.762735,7.86036364 467.173236,5.77559273 458.667055,5.77559273 C450.077556,5.77559273 441.571375,7.86036364 433.899055,12.1134545" id="Path" fill="#4CAF50"></path>
        </g>
    </g>
</svg>