<?xml version="1.0" encoding="UTF-8"?>
<svg width="1962px" height="1795px" viewBox="0 0 1962 1795" version="1.1" xmlns="http://www.w3.org/2000/svg" xmlns:xlink="http://www.w3.org/1999/xlink">
    <!-- Generator: Sketch 52.6 (67491) - http://www.bohemiancoding.com/sketch -->
    <title>odesza</title>
    <desc>Created with Sketch.</desc>
    <defs>
        <linearGradient x1="50%" y1="0%" x2="50%" y2="100%" id="linearGradient-1">
            <stop stop-color="#24E1D1" offset="0%"></stop>
            <stop stop-color="#9D59C8" offset="26.5895168%"></stop>
            <stop stop-color="#EB5071" offset="70.9949374%"></stop>
            <stop stop-color="#E09E25" offset="100%"></stop>
        </linearGradient>
    </defs>
    <g id="odesza" stroke="none" stroke-width="1" fill="none" fill-rule="evenodd">
        <path d="M360,823.346441 L360,1215.3113 L451.202281,1166.63593 L360,823.346441 Z M512.581227,1086.09975 L940,383.785088 L940,205.27738 L366.522998,536.330013 L512.581227,1086.09975 Z M1020,205.27738 L1020,395 C1020,402.335182 1017.98301,409.529133 1014.16961,415.79514 L568.864378,1147.5 L1456.09365,1147.5 C1464.50468,1146.1578 1473.33497,1147.49651 1481.2323,1151.71137 L1600,1215.09863 L1600,540.095562 L1020,205.27738 Z M402.554584,1283.28035 L730.153895,1471.40178 L490.907126,1236.12591 L402.554584,1283.28035 Z M980.199239,1701.40289 C972.855421,1701.45593 965.960063,1699.31561 960.023833,1695.65489 L299.103582,1316.70061 C286.652988,1309.56177 278.981273,1296.29972 279.000034,1281.94771 L280.000034,516.947712 C280.018691,502.674949 287.641013,489.49349 300.002015,482.357821 L960.002015,101.357821 C972.377034,94.2140598 987.622966,94.2140598 999.997985,101.357821 L1659.99799,482.357821 C1672.37516,489.502828 1680,502.708545 1680,517 L1680,1276.31963 C1682.14631,1291.56567 1675.63005,1307.89453 1660.31757,1316.6876 L1000.37604,1695.65402 C994.439499,1699.31527 987.543635,1701.45593 980.199239,1701.40289 Z M980.199239,1605.09487 L1364.16702,1227.5 L596.231456,1227.5 L980.199239,1605.09487 Z M1557.63737,1283.17013 L1469.49135,1236.12591 L1230.80383,1470.85181 L1557.63737,1283.17013 Z M1600,730.441964 L1487.85835,1152.54818 L1490.48329,1156.86137 L1600,1215.3113 L1600,730.441964 Z M1430.23714,1057.8677 L1566.93465,543.332126 L1060.07872,449.640574 L1430.23714,1057.8677 Z M1401.77839,1164.98771 L960.162268,439.344614 L327.270765,556.333649 L312.729235,477.666351 L940,361.7163 L940,136 C940,105.20902 973.331319,85.9638814 999.997985,101.357821 L1659.99799,482.357821 C1672.37516,489.502828 1680,502.708545 1680,517 L1680,1282 C1680,1312.20195 1647.81082,1331.50908 1621.16618,1317.28863 L1443.16618,1222.28863 C1436.84915,1218.91718 1431.55294,1213.91185 1427.83039,1207.79514 L1410.90407,1179.98259 L1398.65896,1176.72941 L1401.77839,1164.98771 Z M1020,360.876805 L1416.50819,434.170743 L1020,205.27738 L1020,360.876805 Z" id="Odesza" fill="url(#linearGradient-1)" fill-rule="nonzero"></path>
    </g>
</svg>