<?xml version="1.0" encoding="UTF-8"?>
<svg width="1024px" height="1024px" viewBox="0 0 1024 1024" version="1.1" xmlns="http://www.w3.org/2000/svg" xmlns:xlink="http://www.w3.org/1999/xlink">
    <!-- Generator: Sketch 52.6 (67491) - http://www.bohemiancoding.com/sketch -->
    <title>python</title>
    <desc>Created with Sketch.</desc>
    <g id="python" stroke="none" stroke-width="1" fill="none" fill-rule="evenodd">
        <polygon id="Path" points="5.91907514 1021.08092 5.91907514 3 1024 3 1024 1021.08092"></polygon>
        <g id="Unknown-5">
            <polygon id="Path" points="0 1024 0 0 1024 0 1024 1024"></polygon>
            <g id="Group" transform="translate(95.255814, 101.209302)" fill-rule="nonzero">
                <path d="M417.746873,5.45738419 C384.573559,5.5640707 361.576186,8.48669767 333.778873,13.2866977 C251.688186,27.5800112 236.733559,57.5960112 236.733559,112.913384 L236.733559,197.457384 L428.733559,197.457384 L428.733559,240.124071 L229.437559,240.124071 L136.637559,240.124071 C80.4028726,240.124071 31.1868726,266.620071 15.5922456,330.129384 C-2.02906791,403.025384 -2.81844093,448.678698 15.5922456,524.796071 C29.5655591,581.564071 60.3495591,624.124071 116.605559,624.124071 L194.088246,624.124071 L194.088246,515.238757 C194.088246,451.964071 251.389559,389.457444 317.053559,389.457444 L471.421559,389.457444 C525.245559,389.457444 578.088246,349.734757 578.088246,296.081444 L578.088246,112.913444 C578.088246,60.8814437 540.562932,21.9694437 488.104246,13.2441302 C489.405559,13.1161302 450.642932,5.32944372 417.746932,5.45744372 L417.746873,5.45738419 Z M311.4215,90.7906977 C328.936186,90.7906977 343.4215,105.233384 343.4215,122.833384 C343.4215,140.604071 328.936186,154.790698 311.4215,154.790698 C293.5655,154.790698 279.4215,140.625384 279.4215,122.833384 C279.4215,105.297384 293.5655,90.7906977 311.4215,90.7906977 Z" id="Shape" fill="#0277BD"></path>
                <path d="M397.074873,816.124011 C430.248186,816.017325 453.245559,813.094698 481.042873,808.294698 C563.133559,794.001384 578.088186,763.985384 578.088186,708.668011 L578.088186,624.124011 L386.088186,624.124011 L386.088186,581.457325 L585.4055,581.457325 L678.2055,581.457325 C734.440186,581.457325 783.656186,554.961325 799.250813,491.452011 C816.872127,418.556011 817.6615,372.902698 799.250813,296.785325 C785.256127,240.017325 754.472127,197.457325 698.216127,197.457325 L620.73344,197.457325 L620.73344,306.342638 C620.73344,369.617325 563.432127,432.123952 497.768127,432.123952 L343.400127,432.123952 C289.576127,432.123952 236.73344,471.846638 236.73344,525.499952 L236.73344,708.667952 C236.73344,760.699952 274.258753,799.611952 326.71744,808.337265 C325.416127,808.465265 364.178753,816.251952 397.074753,816.123952 L397.074873,816.124011 Z M503.4215,730.790698 C485.906813,730.790698 471.4215,716.348011 471.4215,698.748011 C471.4215,680.977325 485.906813,666.790698 503.4215,666.790698 C521.2775,666.790698 535.4215,680.956011 535.4215,698.748011 C535.4215,716.284011 521.256186,730.790698 503.4215,730.790698 Z" id="Shape" fill="#FFC107"></path>
            </g>
        </g>
    </g>
</svg>