<?xml version="1.0" encoding="UTF-8"?>
<svg width="1024px" height="1024px" viewBox="0 0 1024 1024" version="1.1" xmlns="http://www.w3.org/2000/svg" xmlns:xlink="http://www.w3.org/1999/xlink">
    <!-- Generator: Sketch 52.6 (67491) - http://www.bohemiancoding.com/sketch -->
    <title>swift</title>
    <desc>Created with Sketch.</desc>
    <defs>
        <linearGradient x1="66.7413014%" y1="1.56439935%" x2="44.6751713%" y2="99.4495043%" id="linearGradient-1">
            <stop stop-color="#FAAE42" offset="0%"></stop>
            <stop stop-color="#EF3E31" offset="100%"></stop>
        </linearGradient>
    </defs>
    <g id="swift" stroke="none" stroke-width="1" fill="none" fill-rule="evenodd">
        <g id="iconfinder_Swift_1174968" transform="translate(0.000000, 55.000000)" fill="url(#linearGradient-1)">
            <path d="M631.641889,1.89240246 C1080.98234,307.620534 935.267351,643.627105 935.267351,643.627105 C935.267351,643.627105 1062.89938,787.659959 1011.59425,913.820123 C1011.59425,913.820123 958.606982,825.718275 870.7154,825.718275 C785.767556,825.718275 735.513758,913.820123 563.935934,913.820123 C182.511704,913.820123 1.68213552,595.055441 1.68213552,595.055441 C345.468583,821.723203 580.336756,661.079261 580.336756,661.079261 C425.159754,571.295277 95.8817248,141.509651 95.8817248,141.509651 C382.896099,385.839836 506.743326,449.971253 506.743326,449.971253 C432.30883,388.99384 224.775359,90.2045175 224.775359,90.2045175 C390.886242,258.207803 721.005339,492.445175 721.005339,492.445175 C815.625462,233.606571 631.641889,1.89240246 631.641889,1.89240246 Z" id="Path"></path>
        </g>
    </g>
</svg>