<?xml version="1.0" encoding="UTF-8"?>
<svg width="1024px" height="1024px" viewBox="0 0 1024 1024" version="1.1" xmlns="http://www.w3.org/2000/svg" xmlns:xlink="http://www.w3.org/1999/xlink">
    <!-- Generator: Sketch 52.6 (67491) - http://www.bohemiancoding.com/sketch -->
    <title>typescript</title>
    <desc>Created with Sketch.</desc>
    <g id="typescript" stroke="none" stroke-width="1" fill="none" fill-rule="evenodd">
        <path d="M1.1937118e-12,-1.13686838e-13 L1024,-1.13686838e-13 L1024,1024 L1.1937118e-12,1024 L1.1937118e-12,-1.13686838e-13 Z M611.271812,455.111667 L234.012794,455.111667 L234.012794,547.95442 L369.323169,547.95442 L369.323169,967.112143 L476.530353,967.112143 L476.530353,547.95442 L611.271812,547.95442 L611.271812,455.111667 Z M944.185952,571.278939 L947.940702,471.467343 C947.940702,471.467343 644.779505,388.637097 644.779505,598.58571 C644.779505,753.010769 852.850783,753.010769 852.850783,822.671252 C852.850783,829.270343 855.638288,877.284636 782.223135,877.284636 C708.807903,877.284636 647.595428,831.147678 647.595428,831.147678 L647.595428,943.162031 C647.595428,943.162031 967.709477,1046.7283 967.709477,813.227661 C967.709477,661.647023 757.760864,669.184861 757.760864,593.863875 C757.760864,564.679848 778.440047,537.373156 835.897852,537.373156 C893.355656,537.373156 944.185952,571.278939 944.185952,571.278939 Z" id="Combined-Shape" fill="#1976D2"></path>
    </g>
</svg>